<mxfile host="app.diagrams.net" modified="2023-02-07T09:06:44.779Z" agent="5.0 (Windows NT 10.0; Win64; x64) AppleWebKit/537.36 (KHTML, like Gecko) Chrome/109.0.0.0 Safari/537.36" etag="jLmOoofAC4GgGYbUKHiI" version="20.8.16" type="github">
  <diagram id="C5RBs43oDa-KdzZeNtuy" name="Page-1">
    <mxGraphModel dx="4168" dy="2001" grid="1" gridSize="10" guides="1" tooltips="1" connect="1" arrows="1" fold="1" page="1" pageScale="1" pageWidth="827" pageHeight="1169" math="0" shadow="0">
      <root>
        <mxCell id="WIyWlLk6GJQsqaUBKTNV-0" />
        <mxCell id="WIyWlLk6GJQsqaUBKTNV-1" parent="WIyWlLk6GJQsqaUBKTNV-0" />
        <mxCell id="NovdqPIXgLQZZNAuiQYG-0" value="bsn_inter_spec_admin_input_spec_rel" style="shape=table;startSize=30;container=1;collapsible=1;childLayout=tableLayout;fixedRows=1;rowLines=0;fontStyle=1;align=center;resizeLast=1;fillColor=#F5AB50;strokeColor=#909090;fontColor=#1A1A1A;" vertex="1" parent="WIyWlLk6GJQsqaUBKTNV-1">
          <mxGeometry x="-2010" y="-1030" width="310" height="360" as="geometry">
            <mxRectangle x="360" y="80" width="100" height="30" as="alternateBounds" />
          </mxGeometry>
        </mxCell>
        <mxCell id="NovdqPIXgLQZZNAuiQYG-1" value="" style="shape=tableRow;horizontal=0;startSize=0;swimlaneHead=0;swimlaneBody=0;fillColor=none;collapsible=0;dropTarget=0;points=[[0,0.5],[1,0.5]];portConstraint=eastwest;top=0;left=0;right=0;bottom=1;strokeColor=#909090;fontColor=#1A1A1A;" vertex="1" parent="NovdqPIXgLQZZNAuiQYG-0">
          <mxGeometry y="30" width="310" height="30" as="geometry" />
        </mxCell>
        <mxCell id="NovdqPIXgLQZZNAuiQYG-2" value="PK" style="shape=partialRectangle;connectable=0;fillColor=none;top=0;left=0;bottom=0;right=0;fontStyle=1;overflow=hidden;strokeColor=#909090;fontColor=#1A1A1A;" vertex="1" parent="NovdqPIXgLQZZNAuiQYG-1">
          <mxGeometry width="30" height="30" as="geometry">
            <mxRectangle width="30" height="30" as="alternateBounds" />
          </mxGeometry>
        </mxCell>
        <mxCell id="NovdqPIXgLQZZNAuiQYG-3" value="bsn_inter_spec_admin_input_spec_rel_id" style="shape=partialRectangle;connectable=0;fillColor=none;top=0;left=0;bottom=0;right=0;align=left;spacingLeft=6;fontStyle=5;overflow=hidden;strokeColor=#909090;fontColor=#1A1A1A;" vertex="1" parent="NovdqPIXgLQZZNAuiQYG-1">
          <mxGeometry x="30" width="280" height="30" as="geometry">
            <mxRectangle width="280" height="30" as="alternateBounds" />
          </mxGeometry>
        </mxCell>
        <mxCell id="NovdqPIXgLQZZNAuiQYG-4" value="" style="shape=tableRow;horizontal=0;startSize=0;swimlaneHead=0;swimlaneBody=0;fillColor=none;collapsible=0;dropTarget=0;points=[[0,0.5],[1,0.5]];portConstraint=eastwest;top=0;left=0;right=0;bottom=0;strokeColor=#909090;fontColor=#1A1A1A;" vertex="1" parent="NovdqPIXgLQZZNAuiQYG-0">
          <mxGeometry y="60" width="310" height="30" as="geometry" />
        </mxCell>
        <mxCell id="NovdqPIXgLQZZNAuiQYG-5" value="FK" style="shape=partialRectangle;connectable=0;fillColor=none;top=0;left=0;bottom=0;right=0;editable=1;overflow=hidden;strokeColor=#909090;fontColor=#1A1A1A;fontStyle=1" vertex="1" parent="NovdqPIXgLQZZNAuiQYG-4">
          <mxGeometry width="30" height="30" as="geometry">
            <mxRectangle width="30" height="30" as="alternateBounds" />
          </mxGeometry>
        </mxCell>
        <mxCell id="NovdqPIXgLQZZNAuiQYG-6" value="bsn_inter_spec_id" style="shape=partialRectangle;connectable=0;fillColor=none;top=0;left=0;bottom=0;right=0;align=left;spacingLeft=6;overflow=hidden;strokeColor=#909090;fontColor=#1A1A1A;fontStyle=1" vertex="1" parent="NovdqPIXgLQZZNAuiQYG-4">
          <mxGeometry x="30" width="280" height="30" as="geometry">
            <mxRectangle width="280" height="30" as="alternateBounds" />
          </mxGeometry>
        </mxCell>
        <mxCell id="NovdqPIXgLQZZNAuiQYG-7" value="" style="shape=tableRow;horizontal=0;startSize=0;swimlaneHead=0;swimlaneBody=0;fillColor=none;collapsible=0;dropTarget=0;points=[[0,0.5],[1,0.5]];portConstraint=eastwest;top=0;left=0;right=0;bottom=0;strokeColor=#909090;fontColor=#1A1A1A;" vertex="1" parent="NovdqPIXgLQZZNAuiQYG-0">
          <mxGeometry y="90" width="310" height="30" as="geometry" />
        </mxCell>
        <mxCell id="NovdqPIXgLQZZNAuiQYG-8" value="FK" style="shape=partialRectangle;connectable=0;fillColor=none;top=0;left=0;bottom=0;right=0;editable=1;overflow=hidden;strokeColor=#909090;fontColor=#1A1A1A;fontStyle=1" vertex="1" parent="NovdqPIXgLQZZNAuiQYG-7">
          <mxGeometry width="30" height="30" as="geometry">
            <mxRectangle width="30" height="30" as="alternateBounds" />
          </mxGeometry>
        </mxCell>
        <mxCell id="NovdqPIXgLQZZNAuiQYG-9" value="admin_input_spec_id" style="shape=partialRectangle;connectable=0;fillColor=none;top=0;left=0;bottom=0;right=0;align=left;spacingLeft=6;overflow=hidden;strokeColor=#909090;fontColor=#1A1A1A;fontStyle=1" vertex="1" parent="NovdqPIXgLQZZNAuiQYG-7">
          <mxGeometry x="30" width="280" height="30" as="geometry">
            <mxRectangle width="280" height="30" as="alternateBounds" />
          </mxGeometry>
        </mxCell>
        <mxCell id="NovdqPIXgLQZZNAuiQYG-10" value="" style="shape=tableRow;horizontal=0;startSize=0;swimlaneHead=0;swimlaneBody=0;fillColor=none;collapsible=0;dropTarget=0;points=[[0,0.5],[1,0.5]];portConstraint=eastwest;top=0;left=0;right=0;bottom=0;strokeColor=#909090;fontColor=#1A1A1A;" vertex="1" parent="NovdqPIXgLQZZNAuiQYG-0">
          <mxGeometry y="120" width="310" height="30" as="geometry" />
        </mxCell>
        <mxCell id="NovdqPIXgLQZZNAuiQYG-11" value="FK" style="shape=partialRectangle;connectable=0;fillColor=none;top=0;left=0;bottom=0;right=0;editable=1;overflow=hidden;strokeColor=#909090;fontColor=#1A1A1A;fontStyle=1" vertex="1" parent="NovdqPIXgLQZZNAuiQYG-10">
          <mxGeometry width="30" height="30" as="geometry">
            <mxRectangle width="30" height="30" as="alternateBounds" />
          </mxGeometry>
        </mxCell>
        <mxCell id="NovdqPIXgLQZZNAuiQYG-12" value="rel_tp_id â†’ ref:gnl_tp" style="shape=partialRectangle;connectable=0;fillColor=none;top=0;left=0;bottom=0;right=0;align=left;spacingLeft=6;overflow=hidden;strokeColor=#909090;fontColor=#1A1A1A;fontStyle=1" vertex="1" parent="NovdqPIXgLQZZNAuiQYG-10">
          <mxGeometry x="30" width="280" height="30" as="geometry">
            <mxRectangle width="280" height="30" as="alternateBounds" />
          </mxGeometry>
        </mxCell>
        <mxCell id="NovdqPIXgLQZZNAuiQYG-13" value="" style="shape=tableRow;horizontal=0;startSize=0;swimlaneHead=0;swimlaneBody=0;fillColor=none;collapsible=0;dropTarget=0;points=[[0,0.5],[1,0.5]];portConstraint=eastwest;top=0;left=0;right=0;bottom=0;strokeColor=#909090;fontColor=#1A1A1A;" vertex="1" parent="NovdqPIXgLQZZNAuiQYG-0">
          <mxGeometry y="150" width="310" height="30" as="geometry" />
        </mxCell>
        <mxCell id="NovdqPIXgLQZZNAuiQYG-14" value="" style="shape=partialRectangle;connectable=0;fillColor=none;top=0;left=0;bottom=0;right=0;editable=1;overflow=hidden;strokeColor=#909090;fontColor=#1A1A1A;" vertex="1" parent="NovdqPIXgLQZZNAuiQYG-13">
          <mxGeometry width="30" height="30" as="geometry">
            <mxRectangle width="30" height="30" as="alternateBounds" />
          </mxGeometry>
        </mxCell>
        <mxCell id="NovdqPIXgLQZZNAuiQYG-15" value="max_line_count" style="shape=partialRectangle;connectable=0;fillColor=none;top=0;left=0;bottom=0;right=0;align=left;spacingLeft=6;overflow=hidden;strokeColor=#909090;fontColor=#1A1A1A;" vertex="1" parent="NovdqPIXgLQZZNAuiQYG-13">
          <mxGeometry x="30" width="280" height="30" as="geometry">
            <mxRectangle width="280" height="30" as="alternateBounds" />
          </mxGeometry>
        </mxCell>
        <mxCell id="NovdqPIXgLQZZNAuiQYG-16" value="" style="shape=tableRow;horizontal=0;startSize=0;swimlaneHead=0;swimlaneBody=0;fillColor=none;collapsible=0;dropTarget=0;points=[[0,0.5],[1,0.5]];portConstraint=eastwest;top=0;left=0;right=0;bottom=0;strokeColor=#909090;fontColor=#1A1A1A;" vertex="1" parent="NovdqPIXgLQZZNAuiQYG-0">
          <mxGeometry y="180" width="310" height="30" as="geometry" />
        </mxCell>
        <mxCell id="NovdqPIXgLQZZNAuiQYG-17" value="" style="shape=partialRectangle;connectable=0;fillColor=none;top=0;left=0;bottom=0;right=0;editable=1;overflow=hidden;strokeColor=#909090;fontColor=#1A1A1A;" vertex="1" parent="NovdqPIXgLQZZNAuiQYG-16">
          <mxGeometry width="30" height="30" as="geometry">
            <mxRectangle width="30" height="30" as="alternateBounds" />
          </mxGeometry>
        </mxCell>
        <mxCell id="NovdqPIXgLQZZNAuiQYG-18" value="max_file_size" style="shape=partialRectangle;connectable=0;fillColor=none;top=0;left=0;bottom=0;right=0;align=left;spacingLeft=6;overflow=hidden;strokeColor=#909090;fontColor=#1A1A1A;" vertex="1" parent="NovdqPIXgLQZZNAuiQYG-16">
          <mxGeometry x="30" width="280" height="30" as="geometry">
            <mxRectangle width="280" height="30" as="alternateBounds" />
          </mxGeometry>
        </mxCell>
        <mxCell id="NovdqPIXgLQZZNAuiQYG-19" value="" style="shape=tableRow;horizontal=0;startSize=0;swimlaneHead=0;swimlaneBody=0;fillColor=none;collapsible=0;dropTarget=0;points=[[0,0.5],[1,0.5]];portConstraint=eastwest;top=0;left=0;right=0;bottom=0;strokeColor=#909090;fontColor=#1A1A1A;" vertex="1" parent="NovdqPIXgLQZZNAuiQYG-0">
          <mxGeometry y="210" width="310" height="30" as="geometry" />
        </mxCell>
        <mxCell id="NovdqPIXgLQZZNAuiQYG-20" value="" style="shape=partialRectangle;connectable=0;fillColor=none;top=0;left=0;bottom=0;right=0;editable=1;overflow=hidden;strokeColor=#909090;fontColor=#1A1A1A;" vertex="1" parent="NovdqPIXgLQZZNAuiQYG-19">
          <mxGeometry width="30" height="30" as="geometry">
            <mxRectangle width="30" height="30" as="alternateBounds" />
          </mxGeometry>
        </mxCell>
        <mxCell id="NovdqPIXgLQZZNAuiQYG-21" value="is_actv" style="shape=partialRectangle;connectable=0;fillColor=none;top=0;left=0;bottom=0;right=0;align=left;spacingLeft=6;overflow=hidden;strokeColor=#909090;fontColor=#1A1A1A;" vertex="1" parent="NovdqPIXgLQZZNAuiQYG-19">
          <mxGeometry x="30" width="280" height="30" as="geometry">
            <mxRectangle width="280" height="30" as="alternateBounds" />
          </mxGeometry>
        </mxCell>
        <mxCell id="NovdqPIXgLQZZNAuiQYG-22" value="" style="shape=tableRow;horizontal=0;startSize=0;swimlaneHead=0;swimlaneBody=0;fillColor=none;collapsible=0;dropTarget=0;points=[[0,0.5],[1,0.5]];portConstraint=eastwest;top=0;left=0;right=0;bottom=0;strokeColor=#909090;fontColor=#1A1A1A;" vertex="1" parent="NovdqPIXgLQZZNAuiQYG-0">
          <mxGeometry y="240" width="310" height="30" as="geometry" />
        </mxCell>
        <mxCell id="NovdqPIXgLQZZNAuiQYG-23" value="" style="shape=partialRectangle;connectable=0;fillColor=none;top=0;left=0;bottom=0;right=0;editable=1;overflow=hidden;strokeColor=#909090;fontColor=#1A1A1A;" vertex="1" parent="NovdqPIXgLQZZNAuiQYG-22">
          <mxGeometry width="30" height="30" as="geometry">
            <mxRectangle width="30" height="30" as="alternateBounds" />
          </mxGeometry>
        </mxCell>
        <mxCell id="NovdqPIXgLQZZNAuiQYG-24" value="cuser" style="shape=partialRectangle;connectable=0;fillColor=none;top=0;left=0;bottom=0;right=0;align=left;spacingLeft=6;overflow=hidden;strokeColor=#909090;fontColor=#1A1A1A;" vertex="1" parent="NovdqPIXgLQZZNAuiQYG-22">
          <mxGeometry x="30" width="280" height="30" as="geometry">
            <mxRectangle width="280" height="30" as="alternateBounds" />
          </mxGeometry>
        </mxCell>
        <mxCell id="NovdqPIXgLQZZNAuiQYG-156" value="" style="shape=tableRow;horizontal=0;startSize=0;swimlaneHead=0;swimlaneBody=0;fillColor=none;collapsible=0;dropTarget=0;points=[[0,0.5],[1,0.5]];portConstraint=eastwest;top=0;left=0;right=0;bottom=0;strokeColor=#909090;fontColor=#1A1A1A;" vertex="1" parent="NovdqPIXgLQZZNAuiQYG-0">
          <mxGeometry y="270" width="310" height="30" as="geometry" />
        </mxCell>
        <mxCell id="NovdqPIXgLQZZNAuiQYG-157" value="" style="shape=partialRectangle;connectable=0;fillColor=none;top=0;left=0;bottom=0;right=0;editable=1;overflow=hidden;strokeColor=#909090;fontColor=#1A1A1A;" vertex="1" parent="NovdqPIXgLQZZNAuiQYG-156">
          <mxGeometry width="30" height="30" as="geometry">
            <mxRectangle width="30" height="30" as="alternateBounds" />
          </mxGeometry>
        </mxCell>
        <mxCell id="NovdqPIXgLQZZNAuiQYG-158" value="cdate" style="shape=partialRectangle;connectable=0;fillColor=none;top=0;left=0;bottom=0;right=0;align=left;spacingLeft=6;overflow=hidden;strokeColor=#909090;fontColor=#1A1A1A;" vertex="1" parent="NovdqPIXgLQZZNAuiQYG-156">
          <mxGeometry x="30" width="280" height="30" as="geometry">
            <mxRectangle width="280" height="30" as="alternateBounds" />
          </mxGeometry>
        </mxCell>
        <mxCell id="NovdqPIXgLQZZNAuiQYG-25" value="" style="shape=tableRow;horizontal=0;startSize=0;swimlaneHead=0;swimlaneBody=0;fillColor=none;collapsible=0;dropTarget=0;points=[[0,0.5],[1,0.5]];portConstraint=eastwest;top=0;left=0;right=0;bottom=0;strokeColor=#909090;fontColor=#1A1A1A;" vertex="1" parent="NovdqPIXgLQZZNAuiQYG-0">
          <mxGeometry y="300" width="310" height="30" as="geometry" />
        </mxCell>
        <mxCell id="NovdqPIXgLQZZNAuiQYG-26" value="" style="shape=partialRectangle;connectable=0;fillColor=none;top=0;left=0;bottom=0;right=0;editable=1;overflow=hidden;strokeColor=#909090;fontColor=#1A1A1A;" vertex="1" parent="NovdqPIXgLQZZNAuiQYG-25">
          <mxGeometry width="30" height="30" as="geometry">
            <mxRectangle width="30" height="30" as="alternateBounds" />
          </mxGeometry>
        </mxCell>
        <mxCell id="NovdqPIXgLQZZNAuiQYG-27" value="udate" style="shape=partialRectangle;connectable=0;fillColor=none;top=0;left=0;bottom=0;right=0;align=left;spacingLeft=6;overflow=hidden;strokeColor=#909090;fontColor=#1A1A1A;" vertex="1" parent="NovdqPIXgLQZZNAuiQYG-25">
          <mxGeometry x="30" width="280" height="30" as="geometry">
            <mxRectangle width="280" height="30" as="alternateBounds" />
          </mxGeometry>
        </mxCell>
        <mxCell id="NovdqPIXgLQZZNAuiQYG-28" value="" style="shape=tableRow;horizontal=0;startSize=0;swimlaneHead=0;swimlaneBody=0;fillColor=none;collapsible=0;dropTarget=0;points=[[0,0.5],[1,0.5]];portConstraint=eastwest;top=0;left=0;right=0;bottom=0;strokeColor=#909090;fontColor=#1A1A1A;" vertex="1" parent="NovdqPIXgLQZZNAuiQYG-0">
          <mxGeometry y="330" width="310" height="30" as="geometry" />
        </mxCell>
        <mxCell id="NovdqPIXgLQZZNAuiQYG-29" value="" style="shape=partialRectangle;connectable=0;fillColor=none;top=0;left=0;bottom=0;right=0;editable=1;overflow=hidden;strokeColor=#909090;fontColor=#1A1A1A;" vertex="1" parent="NovdqPIXgLQZZNAuiQYG-28">
          <mxGeometry width="30" height="30" as="geometry">
            <mxRectangle width="30" height="30" as="alternateBounds" />
          </mxGeometry>
        </mxCell>
        <mxCell id="NovdqPIXgLQZZNAuiQYG-30" value="uuser" style="shape=partialRectangle;connectable=0;fillColor=none;top=0;left=0;bottom=0;right=0;align=left;spacingLeft=6;overflow=hidden;strokeColor=#909090;fontColor=#1A1A1A;" vertex="1" parent="NovdqPIXgLQZZNAuiQYG-28">
          <mxGeometry x="30" width="280" height="30" as="geometry">
            <mxRectangle width="280" height="30" as="alternateBounds" />
          </mxGeometry>
        </mxCell>
        <mxCell id="NovdqPIXgLQZZNAuiQYG-31" value="admin_input_spec" style="shape=table;startSize=30;container=1;collapsible=1;childLayout=tableLayout;fixedRows=1;rowLines=0;fontStyle=1;align=center;resizeLast=1;fillColor=#F5AB50;strokeColor=#909090;fontColor=#1A1A1A;" vertex="1" parent="WIyWlLk6GJQsqaUBKTNV-1">
          <mxGeometry x="-2010" y="-560" width="210" height="270" as="geometry">
            <mxRectangle x="360" y="80" width="100" height="30" as="alternateBounds" />
          </mxGeometry>
        </mxCell>
        <mxCell id="NovdqPIXgLQZZNAuiQYG-32" value="" style="shape=tableRow;horizontal=0;startSize=0;swimlaneHead=0;swimlaneBody=0;fillColor=none;collapsible=0;dropTarget=0;points=[[0,0.5],[1,0.5]];portConstraint=eastwest;top=0;left=0;right=0;bottom=1;strokeColor=#909090;fontColor=#1A1A1A;" vertex="1" parent="NovdqPIXgLQZZNAuiQYG-31">
          <mxGeometry y="30" width="210" height="30" as="geometry" />
        </mxCell>
        <mxCell id="NovdqPIXgLQZZNAuiQYG-33" value="PK" style="shape=partialRectangle;connectable=0;fillColor=none;top=0;left=0;bottom=0;right=0;fontStyle=1;overflow=hidden;strokeColor=#909090;fontColor=#1A1A1A;" vertex="1" parent="NovdqPIXgLQZZNAuiQYG-32">
          <mxGeometry width="30" height="30" as="geometry">
            <mxRectangle width="30" height="30" as="alternateBounds" />
          </mxGeometry>
        </mxCell>
        <mxCell id="NovdqPIXgLQZZNAuiQYG-34" value="admin_input_spec_id" style="shape=partialRectangle;connectable=0;fillColor=none;top=0;left=0;bottom=0;right=0;align=left;spacingLeft=6;fontStyle=5;overflow=hidden;strokeColor=#909090;fontColor=#1A1A1A;" vertex="1" parent="NovdqPIXgLQZZNAuiQYG-32">
          <mxGeometry x="30" width="180" height="30" as="geometry">
            <mxRectangle width="180" height="30" as="alternateBounds" />
          </mxGeometry>
        </mxCell>
        <mxCell id="NovdqPIXgLQZZNAuiQYG-35" value="" style="shape=tableRow;horizontal=0;startSize=0;swimlaneHead=0;swimlaneBody=0;fillColor=none;collapsible=0;dropTarget=0;points=[[0,0.5],[1,0.5]];portConstraint=eastwest;top=0;left=0;right=0;bottom=0;strokeColor=#909090;fontColor=#1A1A1A;" vertex="1" parent="NovdqPIXgLQZZNAuiQYG-31">
          <mxGeometry y="60" width="210" height="30" as="geometry" />
        </mxCell>
        <mxCell id="NovdqPIXgLQZZNAuiQYG-36" value="FK" style="shape=partialRectangle;connectable=0;fillColor=none;top=0;left=0;bottom=0;right=0;editable=1;overflow=hidden;strokeColor=#909090;fontColor=#1A1A1A;fontStyle=1" vertex="1" parent="NovdqPIXgLQZZNAuiQYG-35">
          <mxGeometry width="30" height="30" as="geometry">
            <mxRectangle width="30" height="30" as="alternateBounds" />
          </mxGeometry>
        </mxCell>
        <mxCell id="NovdqPIXgLQZZNAuiQYG-37" value="admin_input_type_id" style="shape=partialRectangle;connectable=0;fillColor=none;top=0;left=0;bottom=0;right=0;align=left;spacingLeft=6;overflow=hidden;strokeColor=#909090;fontColor=#1A1A1A;fontStyle=1" vertex="1" parent="NovdqPIXgLQZZNAuiQYG-35">
          <mxGeometry x="30" width="180" height="30" as="geometry">
            <mxRectangle width="180" height="30" as="alternateBounds" />
          </mxGeometry>
        </mxCell>
        <mxCell id="NovdqPIXgLQZZNAuiQYG-38" value="" style="shape=tableRow;horizontal=0;startSize=0;swimlaneHead=0;swimlaneBody=0;fillColor=none;collapsible=0;dropTarget=0;points=[[0,0.5],[1,0.5]];portConstraint=eastwest;top=0;left=0;right=0;bottom=0;strokeColor=#909090;fontColor=#1A1A1A;" vertex="1" parent="NovdqPIXgLQZZNAuiQYG-31">
          <mxGeometry y="90" width="210" height="30" as="geometry" />
        </mxCell>
        <mxCell id="NovdqPIXgLQZZNAuiQYG-39" value="" style="shape=partialRectangle;connectable=0;fillColor=none;top=0;left=0;bottom=0;right=0;editable=1;overflow=hidden;strokeColor=#909090;fontColor=#1A1A1A;" vertex="1" parent="NovdqPIXgLQZZNAuiQYG-38">
          <mxGeometry width="30" height="30" as="geometry">
            <mxRectangle width="30" height="30" as="alternateBounds" />
          </mxGeometry>
        </mxCell>
        <mxCell id="NovdqPIXgLQZZNAuiQYG-40" value="shrt_code" style="shape=partialRectangle;connectable=0;fillColor=none;top=0;left=0;bottom=0;right=0;align=left;spacingLeft=6;overflow=hidden;strokeColor=#909090;fontColor=#1A1A1A;" vertex="1" parent="NovdqPIXgLQZZNAuiQYG-38">
          <mxGeometry x="30" width="180" height="30" as="geometry">
            <mxRectangle width="180" height="30" as="alternateBounds" />
          </mxGeometry>
        </mxCell>
        <mxCell id="NovdqPIXgLQZZNAuiQYG-41" value="" style="shape=tableRow;horizontal=0;startSize=0;swimlaneHead=0;swimlaneBody=0;fillColor=none;collapsible=0;dropTarget=0;points=[[0,0.5],[1,0.5]];portConstraint=eastwest;top=0;left=0;right=0;bottom=0;strokeColor=#909090;fontColor=#1A1A1A;" vertex="1" parent="NovdqPIXgLQZZNAuiQYG-31">
          <mxGeometry y="120" width="210" height="30" as="geometry" />
        </mxCell>
        <mxCell id="NovdqPIXgLQZZNAuiQYG-42" value="" style="shape=partialRectangle;connectable=0;fillColor=none;top=0;left=0;bottom=0;right=0;editable=1;overflow=hidden;strokeColor=#909090;fontColor=#1A1A1A;" vertex="1" parent="NovdqPIXgLQZZNAuiQYG-41">
          <mxGeometry width="30" height="30" as="geometry">
            <mxRectangle width="30" height="30" as="alternateBounds" />
          </mxGeometry>
        </mxCell>
        <mxCell id="NovdqPIXgLQZZNAuiQYG-43" value="is_actv" style="shape=partialRectangle;connectable=0;fillColor=none;top=0;left=0;bottom=0;right=0;align=left;spacingLeft=6;overflow=hidden;strokeColor=#909090;fontColor=#1A1A1A;" vertex="1" parent="NovdqPIXgLQZZNAuiQYG-41">
          <mxGeometry x="30" width="180" height="30" as="geometry">
            <mxRectangle width="180" height="30" as="alternateBounds" />
          </mxGeometry>
        </mxCell>
        <mxCell id="NovdqPIXgLQZZNAuiQYG-44" value="" style="shape=tableRow;horizontal=0;startSize=0;swimlaneHead=0;swimlaneBody=0;fillColor=none;collapsible=0;dropTarget=0;points=[[0,0.5],[1,0.5]];portConstraint=eastwest;top=0;left=0;right=0;bottom=0;strokeColor=#909090;fontColor=#1A1A1A;" vertex="1" parent="NovdqPIXgLQZZNAuiQYG-31">
          <mxGeometry y="150" width="210" height="30" as="geometry" />
        </mxCell>
        <mxCell id="NovdqPIXgLQZZNAuiQYG-45" value="" style="shape=partialRectangle;connectable=0;fillColor=none;top=0;left=0;bottom=0;right=0;editable=1;overflow=hidden;strokeColor=#909090;fontColor=#1A1A1A;" vertex="1" parent="NovdqPIXgLQZZNAuiQYG-44">
          <mxGeometry width="30" height="30" as="geometry">
            <mxRectangle width="30" height="30" as="alternateBounds" />
          </mxGeometry>
        </mxCell>
        <mxCell id="NovdqPIXgLQZZNAuiQYG-46" value="cuser" style="shape=partialRectangle;connectable=0;fillColor=none;top=0;left=0;bottom=0;right=0;align=left;spacingLeft=6;overflow=hidden;strokeColor=#909090;fontColor=#1A1A1A;" vertex="1" parent="NovdqPIXgLQZZNAuiQYG-44">
          <mxGeometry x="30" width="180" height="30" as="geometry">
            <mxRectangle width="180" height="30" as="alternateBounds" />
          </mxGeometry>
        </mxCell>
        <mxCell id="NovdqPIXgLQZZNAuiQYG-47" value="" style="shape=tableRow;horizontal=0;startSize=0;swimlaneHead=0;swimlaneBody=0;fillColor=none;collapsible=0;dropTarget=0;points=[[0,0.5],[1,0.5]];portConstraint=eastwest;top=0;left=0;right=0;bottom=0;strokeColor=#909090;fontColor=#1A1A1A;" vertex="1" parent="NovdqPIXgLQZZNAuiQYG-31">
          <mxGeometry y="180" width="210" height="30" as="geometry" />
        </mxCell>
        <mxCell id="NovdqPIXgLQZZNAuiQYG-48" value="" style="shape=partialRectangle;connectable=0;fillColor=none;top=0;left=0;bottom=0;right=0;editable=1;overflow=hidden;strokeColor=#909090;fontColor=#1A1A1A;" vertex="1" parent="NovdqPIXgLQZZNAuiQYG-47">
          <mxGeometry width="30" height="30" as="geometry">
            <mxRectangle width="30" height="30" as="alternateBounds" />
          </mxGeometry>
        </mxCell>
        <mxCell id="NovdqPIXgLQZZNAuiQYG-49" value="cdate" style="shape=partialRectangle;connectable=0;fillColor=none;top=0;left=0;bottom=0;right=0;align=left;spacingLeft=6;overflow=hidden;strokeColor=#909090;fontColor=#1A1A1A;" vertex="1" parent="NovdqPIXgLQZZNAuiQYG-47">
          <mxGeometry x="30" width="180" height="30" as="geometry">
            <mxRectangle width="180" height="30" as="alternateBounds" />
          </mxGeometry>
        </mxCell>
        <mxCell id="NovdqPIXgLQZZNAuiQYG-50" value="" style="shape=tableRow;horizontal=0;startSize=0;swimlaneHead=0;swimlaneBody=0;fillColor=none;collapsible=0;dropTarget=0;points=[[0,0.5],[1,0.5]];portConstraint=eastwest;top=0;left=0;right=0;bottom=0;strokeColor=#909090;fontColor=#1A1A1A;" vertex="1" parent="NovdqPIXgLQZZNAuiQYG-31">
          <mxGeometry y="210" width="210" height="30" as="geometry" />
        </mxCell>
        <mxCell id="NovdqPIXgLQZZNAuiQYG-51" value="" style="shape=partialRectangle;connectable=0;fillColor=none;top=0;left=0;bottom=0;right=0;editable=1;overflow=hidden;strokeColor=#909090;fontColor=#1A1A1A;" vertex="1" parent="NovdqPIXgLQZZNAuiQYG-50">
          <mxGeometry width="30" height="30" as="geometry">
            <mxRectangle width="30" height="30" as="alternateBounds" />
          </mxGeometry>
        </mxCell>
        <mxCell id="NovdqPIXgLQZZNAuiQYG-52" value="uuser" style="shape=partialRectangle;connectable=0;fillColor=none;top=0;left=0;bottom=0;right=0;align=left;spacingLeft=6;overflow=hidden;strokeColor=#909090;fontColor=#1A1A1A;" vertex="1" parent="NovdqPIXgLQZZNAuiQYG-50">
          <mxGeometry x="30" width="180" height="30" as="geometry">
            <mxRectangle width="180" height="30" as="alternateBounds" />
          </mxGeometry>
        </mxCell>
        <mxCell id="NovdqPIXgLQZZNAuiQYG-53" value="" style="shape=tableRow;horizontal=0;startSize=0;swimlaneHead=0;swimlaneBody=0;fillColor=none;collapsible=0;dropTarget=0;points=[[0,0.5],[1,0.5]];portConstraint=eastwest;top=0;left=0;right=0;bottom=0;strokeColor=#909090;fontColor=#1A1A1A;" vertex="1" parent="NovdqPIXgLQZZNAuiQYG-31">
          <mxGeometry y="240" width="210" height="30" as="geometry" />
        </mxCell>
        <mxCell id="NovdqPIXgLQZZNAuiQYG-54" value="" style="shape=partialRectangle;connectable=0;fillColor=none;top=0;left=0;bottom=0;right=0;editable=1;overflow=hidden;strokeColor=#909090;fontColor=#1A1A1A;" vertex="1" parent="NovdqPIXgLQZZNAuiQYG-53">
          <mxGeometry width="30" height="30" as="geometry">
            <mxRectangle width="30" height="30" as="alternateBounds" />
          </mxGeometry>
        </mxCell>
        <mxCell id="NovdqPIXgLQZZNAuiQYG-55" value="udate" style="shape=partialRectangle;connectable=0;fillColor=none;top=0;left=0;bottom=0;right=0;align=left;spacingLeft=6;overflow=hidden;strokeColor=#909090;fontColor=#1A1A1A;" vertex="1" parent="NovdqPIXgLQZZNAuiQYG-53">
          <mxGeometry x="30" width="180" height="30" as="geometry">
            <mxRectangle width="180" height="30" as="alternateBounds" />
          </mxGeometry>
        </mxCell>
        <mxCell id="NovdqPIXgLQZZNAuiQYG-62" value="admin_input_type" style="shape=table;startSize=30;container=1;collapsible=1;childLayout=tableLayout;fixedRows=1;rowLines=0;fontStyle=1;align=center;resizeLast=1;fillColor=#F5AB50;strokeColor=#909090;fontColor=#1A1A1A;" vertex="1" parent="WIyWlLk6GJQsqaUBKTNV-1">
          <mxGeometry x="-2410" y="-560" width="210" height="270" as="geometry">
            <mxRectangle x="360" y="80" width="100" height="30" as="alternateBounds" />
          </mxGeometry>
        </mxCell>
        <mxCell id="NovdqPIXgLQZZNAuiQYG-63" value="" style="shape=tableRow;horizontal=0;startSize=0;swimlaneHead=0;swimlaneBody=0;fillColor=none;collapsible=0;dropTarget=0;points=[[0,0.5],[1,0.5]];portConstraint=eastwest;top=0;left=0;right=0;bottom=1;strokeColor=#909090;fontColor=#1A1A1A;" vertex="1" parent="NovdqPIXgLQZZNAuiQYG-62">
          <mxGeometry y="30" width="210" height="30" as="geometry" />
        </mxCell>
        <mxCell id="NovdqPIXgLQZZNAuiQYG-64" value="PK" style="shape=partialRectangle;connectable=0;fillColor=none;top=0;left=0;bottom=0;right=0;fontStyle=1;overflow=hidden;strokeColor=#909090;fontColor=#1A1A1A;" vertex="1" parent="NovdqPIXgLQZZNAuiQYG-63">
          <mxGeometry width="30" height="30" as="geometry">
            <mxRectangle width="30" height="30" as="alternateBounds" />
          </mxGeometry>
        </mxCell>
        <mxCell id="NovdqPIXgLQZZNAuiQYG-65" value="admin_input_type_id" style="shape=partialRectangle;connectable=0;fillColor=none;top=0;left=0;bottom=0;right=0;align=left;spacingLeft=6;fontStyle=5;overflow=hidden;strokeColor=#909090;fontColor=#1A1A1A;" vertex="1" parent="NovdqPIXgLQZZNAuiQYG-63">
          <mxGeometry x="30" width="180" height="30" as="geometry">
            <mxRectangle width="180" height="30" as="alternateBounds" />
          </mxGeometry>
        </mxCell>
        <mxCell id="NovdqPIXgLQZZNAuiQYG-69" value="" style="shape=tableRow;horizontal=0;startSize=0;swimlaneHead=0;swimlaneBody=0;fillColor=none;collapsible=0;dropTarget=0;points=[[0,0.5],[1,0.5]];portConstraint=eastwest;top=0;left=0;right=0;bottom=0;strokeColor=#909090;fontColor=#1A1A1A;" vertex="1" parent="NovdqPIXgLQZZNAuiQYG-62">
          <mxGeometry y="60" width="210" height="30" as="geometry" />
        </mxCell>
        <mxCell id="NovdqPIXgLQZZNAuiQYG-70" value="" style="shape=partialRectangle;connectable=0;fillColor=none;top=0;left=0;bottom=0;right=0;editable=1;overflow=hidden;strokeColor=#909090;fontColor=#1A1A1A;" vertex="1" parent="NovdqPIXgLQZZNAuiQYG-69">
          <mxGeometry width="30" height="30" as="geometry">
            <mxRectangle width="30" height="30" as="alternateBounds" />
          </mxGeometry>
        </mxCell>
        <mxCell id="NovdqPIXgLQZZNAuiQYG-71" value="shrt_code" style="shape=partialRectangle;connectable=0;fillColor=none;top=0;left=0;bottom=0;right=0;align=left;spacingLeft=6;overflow=hidden;strokeColor=#909090;fontColor=#1A1A1A;" vertex="1" parent="NovdqPIXgLQZZNAuiQYG-69">
          <mxGeometry x="30" width="180" height="30" as="geometry">
            <mxRectangle width="180" height="30" as="alternateBounds" />
          </mxGeometry>
        </mxCell>
        <mxCell id="NovdqPIXgLQZZNAuiQYG-72" value="" style="shape=tableRow;horizontal=0;startSize=0;swimlaneHead=0;swimlaneBody=0;fillColor=none;collapsible=0;dropTarget=0;points=[[0,0.5],[1,0.5]];portConstraint=eastwest;top=0;left=0;right=0;bottom=0;strokeColor=#909090;fontColor=#1A1A1A;" vertex="1" parent="NovdqPIXgLQZZNAuiQYG-62">
          <mxGeometry y="90" width="210" height="30" as="geometry" />
        </mxCell>
        <mxCell id="NovdqPIXgLQZZNAuiQYG-73" value="" style="shape=partialRectangle;connectable=0;fillColor=none;top=0;left=0;bottom=0;right=0;editable=1;overflow=hidden;strokeColor=#909090;fontColor=#1A1A1A;" vertex="1" parent="NovdqPIXgLQZZNAuiQYG-72">
          <mxGeometry width="30" height="30" as="geometry">
            <mxRectangle width="30" height="30" as="alternateBounds" />
          </mxGeometry>
        </mxCell>
        <mxCell id="NovdqPIXgLQZZNAuiQYG-74" value="file_extension (text field)" style="shape=partialRectangle;connectable=0;fillColor=none;top=0;left=0;bottom=0;right=0;align=left;spacingLeft=6;overflow=hidden;strokeColor=#909090;fontColor=#1A1A1A;" vertex="1" parent="NovdqPIXgLQZZNAuiQYG-72">
          <mxGeometry x="30" width="180" height="30" as="geometry">
            <mxRectangle width="180" height="30" as="alternateBounds" />
          </mxGeometry>
        </mxCell>
        <mxCell id="NovdqPIXgLQZZNAuiQYG-75" value="" style="shape=tableRow;horizontal=0;startSize=0;swimlaneHead=0;swimlaneBody=0;fillColor=none;collapsible=0;dropTarget=0;points=[[0,0.5],[1,0.5]];portConstraint=eastwest;top=0;left=0;right=0;bottom=0;strokeColor=#909090;fontColor=#1A1A1A;" vertex="1" parent="NovdqPIXgLQZZNAuiQYG-62">
          <mxGeometry y="120" width="210" height="30" as="geometry" />
        </mxCell>
        <mxCell id="NovdqPIXgLQZZNAuiQYG-76" value="" style="shape=partialRectangle;connectable=0;fillColor=none;top=0;left=0;bottom=0;right=0;editable=1;overflow=hidden;strokeColor=#909090;fontColor=#1A1A1A;" vertex="1" parent="NovdqPIXgLQZZNAuiQYG-75">
          <mxGeometry width="30" height="30" as="geometry">
            <mxRectangle width="30" height="30" as="alternateBounds" />
          </mxGeometry>
        </mxCell>
        <mxCell id="NovdqPIXgLQZZNAuiQYG-77" value="is_actv" style="shape=partialRectangle;connectable=0;fillColor=none;top=0;left=0;bottom=0;right=0;align=left;spacingLeft=6;overflow=hidden;strokeColor=#909090;fontColor=#1A1A1A;" vertex="1" parent="NovdqPIXgLQZZNAuiQYG-75">
          <mxGeometry x="30" width="180" height="30" as="geometry">
            <mxRectangle width="180" height="30" as="alternateBounds" />
          </mxGeometry>
        </mxCell>
        <mxCell id="NovdqPIXgLQZZNAuiQYG-78" value="" style="shape=tableRow;horizontal=0;startSize=0;swimlaneHead=0;swimlaneBody=0;fillColor=none;collapsible=0;dropTarget=0;points=[[0,0.5],[1,0.5]];portConstraint=eastwest;top=0;left=0;right=0;bottom=0;strokeColor=#909090;fontColor=#1A1A1A;" vertex="1" parent="NovdqPIXgLQZZNAuiQYG-62">
          <mxGeometry y="150" width="210" height="30" as="geometry" />
        </mxCell>
        <mxCell id="NovdqPIXgLQZZNAuiQYG-79" value="" style="shape=partialRectangle;connectable=0;fillColor=none;top=0;left=0;bottom=0;right=0;editable=1;overflow=hidden;strokeColor=#909090;fontColor=#1A1A1A;" vertex="1" parent="NovdqPIXgLQZZNAuiQYG-78">
          <mxGeometry width="30" height="30" as="geometry">
            <mxRectangle width="30" height="30" as="alternateBounds" />
          </mxGeometry>
        </mxCell>
        <mxCell id="NovdqPIXgLQZZNAuiQYG-80" value="cuser" style="shape=partialRectangle;connectable=0;fillColor=none;top=0;left=0;bottom=0;right=0;align=left;spacingLeft=6;overflow=hidden;strokeColor=#909090;fontColor=#1A1A1A;" vertex="1" parent="NovdqPIXgLQZZNAuiQYG-78">
          <mxGeometry x="30" width="180" height="30" as="geometry">
            <mxRectangle width="180" height="30" as="alternateBounds" />
          </mxGeometry>
        </mxCell>
        <mxCell id="NovdqPIXgLQZZNAuiQYG-81" value="" style="shape=tableRow;horizontal=0;startSize=0;swimlaneHead=0;swimlaneBody=0;fillColor=none;collapsible=0;dropTarget=0;points=[[0,0.5],[1,0.5]];portConstraint=eastwest;top=0;left=0;right=0;bottom=0;strokeColor=#909090;fontColor=#1A1A1A;" vertex="1" parent="NovdqPIXgLQZZNAuiQYG-62">
          <mxGeometry y="180" width="210" height="30" as="geometry" />
        </mxCell>
        <mxCell id="NovdqPIXgLQZZNAuiQYG-82" value="" style="shape=partialRectangle;connectable=0;fillColor=none;top=0;left=0;bottom=0;right=0;editable=1;overflow=hidden;strokeColor=#909090;fontColor=#1A1A1A;" vertex="1" parent="NovdqPIXgLQZZNAuiQYG-81">
          <mxGeometry width="30" height="30" as="geometry">
            <mxRectangle width="30" height="30" as="alternateBounds" />
          </mxGeometry>
        </mxCell>
        <mxCell id="NovdqPIXgLQZZNAuiQYG-83" value="cdate" style="shape=partialRectangle;connectable=0;fillColor=none;top=0;left=0;bottom=0;right=0;align=left;spacingLeft=6;overflow=hidden;strokeColor=#909090;fontColor=#1A1A1A;" vertex="1" parent="NovdqPIXgLQZZNAuiQYG-81">
          <mxGeometry x="30" width="180" height="30" as="geometry">
            <mxRectangle width="180" height="30" as="alternateBounds" />
          </mxGeometry>
        </mxCell>
        <mxCell id="NovdqPIXgLQZZNAuiQYG-87" value="" style="shape=tableRow;horizontal=0;startSize=0;swimlaneHead=0;swimlaneBody=0;fillColor=none;collapsible=0;dropTarget=0;points=[[0,0.5],[1,0.5]];portConstraint=eastwest;top=0;left=0;right=0;bottom=0;strokeColor=#909090;fontColor=#1A1A1A;" vertex="1" parent="NovdqPIXgLQZZNAuiQYG-62">
          <mxGeometry y="210" width="210" height="30" as="geometry" />
        </mxCell>
        <mxCell id="NovdqPIXgLQZZNAuiQYG-88" value="" style="shape=partialRectangle;connectable=0;fillColor=none;top=0;left=0;bottom=0;right=0;editable=1;overflow=hidden;strokeColor=#909090;fontColor=#1A1A1A;" vertex="1" parent="NovdqPIXgLQZZNAuiQYG-87">
          <mxGeometry width="30" height="30" as="geometry">
            <mxRectangle width="30" height="30" as="alternateBounds" />
          </mxGeometry>
        </mxCell>
        <mxCell id="NovdqPIXgLQZZNAuiQYG-89" value="uuser" style="shape=partialRectangle;connectable=0;fillColor=none;top=0;left=0;bottom=0;right=0;align=left;spacingLeft=6;overflow=hidden;strokeColor=#909090;fontColor=#1A1A1A;" vertex="1" parent="NovdqPIXgLQZZNAuiQYG-87">
          <mxGeometry x="30" width="180" height="30" as="geometry">
            <mxRectangle width="180" height="30" as="alternateBounds" />
          </mxGeometry>
        </mxCell>
        <mxCell id="NovdqPIXgLQZZNAuiQYG-90" value="" style="shape=tableRow;horizontal=0;startSize=0;swimlaneHead=0;swimlaneBody=0;fillColor=none;collapsible=0;dropTarget=0;points=[[0,0.5],[1,0.5]];portConstraint=eastwest;top=0;left=0;right=0;bottom=0;strokeColor=#909090;fontColor=#1A1A1A;" vertex="1" parent="NovdqPIXgLQZZNAuiQYG-62">
          <mxGeometry y="240" width="210" height="30" as="geometry" />
        </mxCell>
        <mxCell id="NovdqPIXgLQZZNAuiQYG-91" value="" style="shape=partialRectangle;connectable=0;fillColor=none;top=0;left=0;bottom=0;right=0;editable=1;overflow=hidden;strokeColor=#909090;fontColor=#1A1A1A;" vertex="1" parent="NovdqPIXgLQZZNAuiQYG-90">
          <mxGeometry width="30" height="30" as="geometry">
            <mxRectangle width="30" height="30" as="alternateBounds" />
          </mxGeometry>
        </mxCell>
        <mxCell id="NovdqPIXgLQZZNAuiQYG-92" value="udate" style="shape=partialRectangle;connectable=0;fillColor=none;top=0;left=0;bottom=0;right=0;align=left;spacingLeft=6;overflow=hidden;strokeColor=#909090;fontColor=#1A1A1A;" vertex="1" parent="NovdqPIXgLQZZNAuiQYG-90">
          <mxGeometry x="30" width="180" height="30" as="geometry">
            <mxRectangle width="180" height="30" as="alternateBounds" />
          </mxGeometry>
        </mxCell>
        <mxCell id="NovdqPIXgLQZZNAuiQYG-93" value="admin_input_field" style="shape=table;startSize=30;container=1;collapsible=1;childLayout=tableLayout;fixedRows=1;rowLines=0;fontStyle=1;align=center;resizeLast=1;fillColor=#F5AB50;strokeColor=#909090;fontColor=#1A1A1A;" vertex="1" parent="WIyWlLk6GJQsqaUBKTNV-1">
          <mxGeometry x="-1100" y="-560" width="210" height="240" as="geometry">
            <mxRectangle x="360" y="80" width="100" height="30" as="alternateBounds" />
          </mxGeometry>
        </mxCell>
        <mxCell id="NovdqPIXgLQZZNAuiQYG-94" value="" style="shape=tableRow;horizontal=0;startSize=0;swimlaneHead=0;swimlaneBody=0;fillColor=none;collapsible=0;dropTarget=0;points=[[0,0.5],[1,0.5]];portConstraint=eastwest;top=0;left=0;right=0;bottom=1;strokeColor=#909090;fontColor=#1A1A1A;" vertex="1" parent="NovdqPIXgLQZZNAuiQYG-93">
          <mxGeometry y="30" width="210" height="30" as="geometry" />
        </mxCell>
        <mxCell id="NovdqPIXgLQZZNAuiQYG-95" value="PK" style="shape=partialRectangle;connectable=0;fillColor=none;top=0;left=0;bottom=0;right=0;fontStyle=1;overflow=hidden;strokeColor=#909090;fontColor=#1A1A1A;" vertex="1" parent="NovdqPIXgLQZZNAuiQYG-94">
          <mxGeometry width="30" height="30" as="geometry">
            <mxRectangle width="30" height="30" as="alternateBounds" />
          </mxGeometry>
        </mxCell>
        <mxCell id="NovdqPIXgLQZZNAuiQYG-96" value="admin_input_field_id" style="shape=partialRectangle;connectable=0;fillColor=none;top=0;left=0;bottom=0;right=0;align=left;spacingLeft=6;fontStyle=5;overflow=hidden;strokeColor=#909090;fontColor=#1A1A1A;" vertex="1" parent="NovdqPIXgLQZZNAuiQYG-94">
          <mxGeometry x="30" width="180" height="30" as="geometry">
            <mxRectangle width="180" height="30" as="alternateBounds" />
          </mxGeometry>
        </mxCell>
        <mxCell id="NovdqPIXgLQZZNAuiQYG-100" value="" style="shape=tableRow;horizontal=0;startSize=0;swimlaneHead=0;swimlaneBody=0;fillColor=none;collapsible=0;dropTarget=0;points=[[0,0.5],[1,0.5]];portConstraint=eastwest;top=0;left=0;right=0;bottom=0;strokeColor=#909090;fontColor=#1A1A1A;" vertex="1" parent="NovdqPIXgLQZZNAuiQYG-93">
          <mxGeometry y="60" width="210" height="30" as="geometry" />
        </mxCell>
        <mxCell id="NovdqPIXgLQZZNAuiQYG-101" value="" style="shape=partialRectangle;connectable=0;fillColor=none;top=0;left=0;bottom=0;right=0;editable=1;overflow=hidden;strokeColor=#909090;fontColor=#1A1A1A;" vertex="1" parent="NovdqPIXgLQZZNAuiQYG-100">
          <mxGeometry width="30" height="30" as="geometry">
            <mxRectangle width="30" height="30" as="alternateBounds" />
          </mxGeometry>
        </mxCell>
        <mxCell id="NovdqPIXgLQZZNAuiQYG-102" value="shrt_code" style="shape=partialRectangle;connectable=0;fillColor=none;top=0;left=0;bottom=0;right=0;align=left;spacingLeft=6;overflow=hidden;strokeColor=#909090;fontColor=#1A1A1A;" vertex="1" parent="NovdqPIXgLQZZNAuiQYG-100">
          <mxGeometry x="30" width="180" height="30" as="geometry">
            <mxRectangle width="180" height="30" as="alternateBounds" />
          </mxGeometry>
        </mxCell>
        <mxCell id="NovdqPIXgLQZZNAuiQYG-103" value="" style="shape=tableRow;horizontal=0;startSize=0;swimlaneHead=0;swimlaneBody=0;fillColor=none;collapsible=0;dropTarget=0;points=[[0,0.5],[1,0.5]];portConstraint=eastwest;top=0;left=0;right=0;bottom=0;strokeColor=#909090;fontColor=#1A1A1A;" vertex="1" parent="NovdqPIXgLQZZNAuiQYG-93">
          <mxGeometry y="90" width="210" height="30" as="geometry" />
        </mxCell>
        <mxCell id="NovdqPIXgLQZZNAuiQYG-104" value="" style="shape=partialRectangle;connectable=0;fillColor=none;top=0;left=0;bottom=0;right=0;editable=1;overflow=hidden;strokeColor=#909090;fontColor=#1A1A1A;" vertex="1" parent="NovdqPIXgLQZZNAuiQYG-103">
          <mxGeometry width="30" height="30" as="geometry">
            <mxRectangle width="30" height="30" as="alternateBounds" />
          </mxGeometry>
        </mxCell>
        <mxCell id="NovdqPIXgLQZZNAuiQYG-105" value="is_actv" style="shape=partialRectangle;connectable=0;fillColor=none;top=0;left=0;bottom=0;right=0;align=left;spacingLeft=6;overflow=hidden;strokeColor=#909090;fontColor=#1A1A1A;" vertex="1" parent="NovdqPIXgLQZZNAuiQYG-103">
          <mxGeometry x="30" width="180" height="30" as="geometry">
            <mxRectangle width="180" height="30" as="alternateBounds" />
          </mxGeometry>
        </mxCell>
        <mxCell id="NovdqPIXgLQZZNAuiQYG-112" value="" style="shape=tableRow;horizontal=0;startSize=0;swimlaneHead=0;swimlaneBody=0;fillColor=none;collapsible=0;dropTarget=0;points=[[0,0.5],[1,0.5]];portConstraint=eastwest;top=0;left=0;right=0;bottom=0;strokeColor=#909090;fontColor=#1A1A1A;" vertex="1" parent="NovdqPIXgLQZZNAuiQYG-93">
          <mxGeometry y="120" width="210" height="30" as="geometry" />
        </mxCell>
        <mxCell id="NovdqPIXgLQZZNAuiQYG-113" value="" style="shape=partialRectangle;connectable=0;fillColor=none;top=0;left=0;bottom=0;right=0;editable=1;overflow=hidden;strokeColor=#909090;fontColor=#1A1A1A;" vertex="1" parent="NovdqPIXgLQZZNAuiQYG-112">
          <mxGeometry width="30" height="30" as="geometry">
            <mxRectangle width="30" height="30" as="alternateBounds" />
          </mxGeometry>
        </mxCell>
        <mxCell id="NovdqPIXgLQZZNAuiQYG-114" value="cuser" style="shape=partialRectangle;connectable=0;fillColor=none;top=0;left=0;bottom=0;right=0;align=left;spacingLeft=6;overflow=hidden;strokeColor=#909090;fontColor=#1A1A1A;" vertex="1" parent="NovdqPIXgLQZZNAuiQYG-112">
          <mxGeometry x="30" width="180" height="30" as="geometry">
            <mxRectangle width="180" height="30" as="alternateBounds" />
          </mxGeometry>
        </mxCell>
        <mxCell id="NovdqPIXgLQZZNAuiQYG-115" value="" style="shape=tableRow;horizontal=0;startSize=0;swimlaneHead=0;swimlaneBody=0;fillColor=none;collapsible=0;dropTarget=0;points=[[0,0.5],[1,0.5]];portConstraint=eastwest;top=0;left=0;right=0;bottom=0;strokeColor=#909090;fontColor=#1A1A1A;" vertex="1" parent="NovdqPIXgLQZZNAuiQYG-93">
          <mxGeometry y="150" width="210" height="30" as="geometry" />
        </mxCell>
        <mxCell id="NovdqPIXgLQZZNAuiQYG-116" value="" style="shape=partialRectangle;connectable=0;fillColor=none;top=0;left=0;bottom=0;right=0;editable=1;overflow=hidden;strokeColor=#909090;fontColor=#1A1A1A;" vertex="1" parent="NovdqPIXgLQZZNAuiQYG-115">
          <mxGeometry width="30" height="30" as="geometry">
            <mxRectangle width="30" height="30" as="alternateBounds" />
          </mxGeometry>
        </mxCell>
        <mxCell id="NovdqPIXgLQZZNAuiQYG-117" value="cdate" style="shape=partialRectangle;connectable=0;fillColor=none;top=0;left=0;bottom=0;right=0;align=left;spacingLeft=6;overflow=hidden;strokeColor=#909090;fontColor=#1A1A1A;" vertex="1" parent="NovdqPIXgLQZZNAuiQYG-115">
          <mxGeometry x="30" width="180" height="30" as="geometry">
            <mxRectangle width="180" height="30" as="alternateBounds" />
          </mxGeometry>
        </mxCell>
        <mxCell id="NovdqPIXgLQZZNAuiQYG-118" value="" style="shape=tableRow;horizontal=0;startSize=0;swimlaneHead=0;swimlaneBody=0;fillColor=none;collapsible=0;dropTarget=0;points=[[0,0.5],[1,0.5]];portConstraint=eastwest;top=0;left=0;right=0;bottom=0;strokeColor=#909090;fontColor=#1A1A1A;" vertex="1" parent="NovdqPIXgLQZZNAuiQYG-93">
          <mxGeometry y="180" width="210" height="30" as="geometry" />
        </mxCell>
        <mxCell id="NovdqPIXgLQZZNAuiQYG-119" value="" style="shape=partialRectangle;connectable=0;fillColor=none;top=0;left=0;bottom=0;right=0;editable=1;overflow=hidden;strokeColor=#909090;fontColor=#1A1A1A;" vertex="1" parent="NovdqPIXgLQZZNAuiQYG-118">
          <mxGeometry width="30" height="30" as="geometry">
            <mxRectangle width="30" height="30" as="alternateBounds" />
          </mxGeometry>
        </mxCell>
        <mxCell id="NovdqPIXgLQZZNAuiQYG-120" value="uuser" style="shape=partialRectangle;connectable=0;fillColor=none;top=0;left=0;bottom=0;right=0;align=left;spacingLeft=6;overflow=hidden;strokeColor=#909090;fontColor=#1A1A1A;" vertex="1" parent="NovdqPIXgLQZZNAuiQYG-118">
          <mxGeometry x="30" width="180" height="30" as="geometry">
            <mxRectangle width="180" height="30" as="alternateBounds" />
          </mxGeometry>
        </mxCell>
        <mxCell id="NovdqPIXgLQZZNAuiQYG-121" value="" style="shape=tableRow;horizontal=0;startSize=0;swimlaneHead=0;swimlaneBody=0;fillColor=none;collapsible=0;dropTarget=0;points=[[0,0.5],[1,0.5]];portConstraint=eastwest;top=0;left=0;right=0;bottom=0;strokeColor=#909090;fontColor=#1A1A1A;" vertex="1" parent="NovdqPIXgLQZZNAuiQYG-93">
          <mxGeometry y="210" width="210" height="30" as="geometry" />
        </mxCell>
        <mxCell id="NovdqPIXgLQZZNAuiQYG-122" value="" style="shape=partialRectangle;connectable=0;fillColor=none;top=0;left=0;bottom=0;right=0;editable=1;overflow=hidden;strokeColor=#909090;fontColor=#1A1A1A;" vertex="1" parent="NovdqPIXgLQZZNAuiQYG-121">
          <mxGeometry width="30" height="30" as="geometry">
            <mxRectangle width="30" height="30" as="alternateBounds" />
          </mxGeometry>
        </mxCell>
        <mxCell id="NovdqPIXgLQZZNAuiQYG-123" value="udate" style="shape=partialRectangle;connectable=0;fillColor=none;top=0;left=0;bottom=0;right=0;align=left;spacingLeft=6;overflow=hidden;strokeColor=#909090;fontColor=#1A1A1A;" vertex="1" parent="NovdqPIXgLQZZNAuiQYG-121">
          <mxGeometry x="30" width="180" height="30" as="geometry">
            <mxRectangle width="180" height="30" as="alternateBounds" />
          </mxGeometry>
        </mxCell>
        <mxCell id="NovdqPIXgLQZZNAuiQYG-124" value="admin_input_spec_admin_input_field_rel" style="shape=table;startSize=30;container=1;collapsible=1;childLayout=tableLayout;fixedRows=1;rowLines=0;fontStyle=1;align=center;resizeLast=1;fillColor=#F5AB50;strokeColor=#909090;fontColor=#1A1A1A;" vertex="1" parent="WIyWlLk6GJQsqaUBKTNV-1">
          <mxGeometry x="-1580" y="-560" width="340" height="330" as="geometry">
            <mxRectangle x="360" y="80" width="100" height="30" as="alternateBounds" />
          </mxGeometry>
        </mxCell>
        <mxCell id="NovdqPIXgLQZZNAuiQYG-125" value="" style="shape=tableRow;horizontal=0;startSize=0;swimlaneHead=0;swimlaneBody=0;fillColor=none;collapsible=0;dropTarget=0;points=[[0,0.5],[1,0.5]];portConstraint=eastwest;top=0;left=0;right=0;bottom=1;strokeColor=#909090;fontColor=#1A1A1A;" vertex="1" parent="NovdqPIXgLQZZNAuiQYG-124">
          <mxGeometry y="30" width="340" height="30" as="geometry" />
        </mxCell>
        <mxCell id="NovdqPIXgLQZZNAuiQYG-126" value="PK" style="shape=partialRectangle;connectable=0;fillColor=none;top=0;left=0;bottom=0;right=0;fontStyle=1;overflow=hidden;strokeColor=#909090;fontColor=#1A1A1A;" vertex="1" parent="NovdqPIXgLQZZNAuiQYG-125">
          <mxGeometry width="30" height="30" as="geometry">
            <mxRectangle width="30" height="30" as="alternateBounds" />
          </mxGeometry>
        </mxCell>
        <mxCell id="NovdqPIXgLQZZNAuiQYG-127" value="admin_input_spec_admin_input_field_rel_id" style="shape=partialRectangle;connectable=0;fillColor=none;top=0;left=0;bottom=0;right=0;align=left;spacingLeft=6;fontStyle=5;overflow=hidden;strokeColor=#909090;fontColor=#1A1A1A;" vertex="1" parent="NovdqPIXgLQZZNAuiQYG-125">
          <mxGeometry x="30" width="310" height="30" as="geometry">
            <mxRectangle width="310" height="30" as="alternateBounds" />
          </mxGeometry>
        </mxCell>
        <mxCell id="NovdqPIXgLQZZNAuiQYG-128" value="" style="shape=tableRow;horizontal=0;startSize=0;swimlaneHead=0;swimlaneBody=0;fillColor=none;collapsible=0;dropTarget=0;points=[[0,0.5],[1,0.5]];portConstraint=eastwest;top=0;left=0;right=0;bottom=0;strokeColor=#909090;fontColor=#1A1A1A;" vertex="1" parent="NovdqPIXgLQZZNAuiQYG-124">
          <mxGeometry y="60" width="340" height="30" as="geometry" />
        </mxCell>
        <mxCell id="NovdqPIXgLQZZNAuiQYG-129" value="FK" style="shape=partialRectangle;connectable=0;fillColor=none;top=0;left=0;bottom=0;right=0;editable=1;overflow=hidden;strokeColor=#909090;fontColor=#1A1A1A;fontStyle=1" vertex="1" parent="NovdqPIXgLQZZNAuiQYG-128">
          <mxGeometry width="30" height="30" as="geometry">
            <mxRectangle width="30" height="30" as="alternateBounds" />
          </mxGeometry>
        </mxCell>
        <mxCell id="NovdqPIXgLQZZNAuiQYG-130" value="admin_input_spec_id" style="shape=partialRectangle;connectable=0;fillColor=none;top=0;left=0;bottom=0;right=0;align=left;spacingLeft=6;overflow=hidden;strokeColor=#909090;fontColor=#1A1A1A;fontStyle=1" vertex="1" parent="NovdqPIXgLQZZNAuiQYG-128">
          <mxGeometry x="30" width="310" height="30" as="geometry">
            <mxRectangle width="310" height="30" as="alternateBounds" />
          </mxGeometry>
        </mxCell>
        <mxCell id="NovdqPIXgLQZZNAuiQYG-131" value="" style="shape=tableRow;horizontal=0;startSize=0;swimlaneHead=0;swimlaneBody=0;fillColor=none;collapsible=0;dropTarget=0;points=[[0,0.5],[1,0.5]];portConstraint=eastwest;top=0;left=0;right=0;bottom=0;strokeColor=#909090;fontColor=#1A1A1A;" vertex="1" parent="NovdqPIXgLQZZNAuiQYG-124">
          <mxGeometry y="90" width="340" height="30" as="geometry" />
        </mxCell>
        <mxCell id="NovdqPIXgLQZZNAuiQYG-132" value="FK" style="shape=partialRectangle;connectable=0;fillColor=none;top=0;left=0;bottom=0;right=0;editable=1;overflow=hidden;strokeColor=#909090;fontColor=#1A1A1A;fontStyle=1" vertex="1" parent="NovdqPIXgLQZZNAuiQYG-131">
          <mxGeometry width="30" height="30" as="geometry">
            <mxRectangle width="30" height="30" as="alternateBounds" />
          </mxGeometry>
        </mxCell>
        <mxCell id="NovdqPIXgLQZZNAuiQYG-133" value="admin_input_field_id" style="shape=partialRectangle;connectable=0;fillColor=none;top=0;left=0;bottom=0;right=0;align=left;spacingLeft=6;overflow=hidden;strokeColor=#909090;fontColor=#1A1A1A;fontStyle=1" vertex="1" parent="NovdqPIXgLQZZNAuiQYG-131">
          <mxGeometry x="30" width="310" height="30" as="geometry">
            <mxRectangle width="310" height="30" as="alternateBounds" />
          </mxGeometry>
        </mxCell>
        <mxCell id="NovdqPIXgLQZZNAuiQYG-134" value="" style="shape=tableRow;horizontal=0;startSize=0;swimlaneHead=0;swimlaneBody=0;fillColor=none;collapsible=0;dropTarget=0;points=[[0,0.5],[1,0.5]];portConstraint=eastwest;top=0;left=0;right=0;bottom=0;strokeColor=#909090;fontColor=#1A1A1A;" vertex="1" parent="NovdqPIXgLQZZNAuiQYG-124">
          <mxGeometry y="120" width="340" height="30" as="geometry" />
        </mxCell>
        <mxCell id="NovdqPIXgLQZZNAuiQYG-135" value="FK" style="shape=partialRectangle;connectable=0;fillColor=none;top=0;left=0;bottom=0;right=0;editable=1;overflow=hidden;strokeColor=#909090;fontColor=#1A1A1A;fontStyle=1" vertex="1" parent="NovdqPIXgLQZZNAuiQYG-134">
          <mxGeometry width="30" height="30" as="geometry">
            <mxRectangle width="30" height="30" as="alternateBounds" />
          </mxGeometry>
        </mxCell>
        <mxCell id="NovdqPIXgLQZZNAuiQYG-136" value="rel_tp_id â†’ ref: gnl_tp" style="shape=partialRectangle;connectable=0;fillColor=none;top=0;left=0;bottom=0;right=0;align=left;spacingLeft=6;overflow=hidden;strokeColor=#909090;fontColor=#1A1A1A;fontStyle=1" vertex="1" parent="NovdqPIXgLQZZNAuiQYG-134">
          <mxGeometry x="30" width="310" height="30" as="geometry">
            <mxRectangle width="310" height="30" as="alternateBounds" />
          </mxGeometry>
        </mxCell>
        <mxCell id="NovdqPIXgLQZZNAuiQYG-137" value="" style="shape=tableRow;horizontal=0;startSize=0;swimlaneHead=0;swimlaneBody=0;fillColor=none;collapsible=0;dropTarget=0;points=[[0,0.5],[1,0.5]];portConstraint=eastwest;top=0;left=0;right=0;bottom=0;strokeColor=#909090;fontColor=#1A1A1A;" vertex="1" parent="NovdqPIXgLQZZNAuiQYG-124">
          <mxGeometry y="150" width="340" height="30" as="geometry" />
        </mxCell>
        <mxCell id="NovdqPIXgLQZZNAuiQYG-138" value="" style="shape=partialRectangle;connectable=0;fillColor=none;top=0;left=0;bottom=0;right=0;editable=1;overflow=hidden;strokeColor=#909090;fontColor=#1A1A1A;" vertex="1" parent="NovdqPIXgLQZZNAuiQYG-137">
          <mxGeometry width="30" height="30" as="geometry">
            <mxRectangle width="30" height="30" as="alternateBounds" />
          </mxGeometry>
        </mxCell>
        <mxCell id="NovdqPIXgLQZZNAuiQYG-139" value="is_opt (-&gt;is nullable)" style="shape=partialRectangle;connectable=0;fillColor=none;top=0;left=0;bottom=0;right=0;align=left;spacingLeft=6;overflow=hidden;strokeColor=#909090;fontColor=#1A1A1A;" vertex="1" parent="NovdqPIXgLQZZNAuiQYG-137">
          <mxGeometry x="30" width="310" height="30" as="geometry">
            <mxRectangle width="310" height="30" as="alternateBounds" />
          </mxGeometry>
        </mxCell>
        <mxCell id="NovdqPIXgLQZZNAuiQYG-140" value="" style="shape=tableRow;horizontal=0;startSize=0;swimlaneHead=0;swimlaneBody=0;fillColor=none;collapsible=0;dropTarget=0;points=[[0,0.5],[1,0.5]];portConstraint=eastwest;top=0;left=0;right=0;bottom=0;strokeColor=#909090;fontColor=#1A1A1A;" vertex="1" parent="NovdqPIXgLQZZNAuiQYG-124">
          <mxGeometry y="180" width="340" height="30" as="geometry" />
        </mxCell>
        <mxCell id="NovdqPIXgLQZZNAuiQYG-141" value="" style="shape=partialRectangle;connectable=0;fillColor=none;top=0;left=0;bottom=0;right=0;editable=1;overflow=hidden;strokeColor=#909090;fontColor=#1A1A1A;" vertex="1" parent="NovdqPIXgLQZZNAuiQYG-140">
          <mxGeometry width="30" height="30" as="geometry">
            <mxRectangle width="30" height="30" as="alternateBounds" />
          </mxGeometry>
        </mxCell>
        <mxCell id="NovdqPIXgLQZZNAuiQYG-142" value="is_actv" style="shape=partialRectangle;connectable=0;fillColor=none;top=0;left=0;bottom=0;right=0;align=left;spacingLeft=6;overflow=hidden;strokeColor=#909090;fontColor=#1A1A1A;" vertex="1" parent="NovdqPIXgLQZZNAuiQYG-140">
          <mxGeometry x="30" width="310" height="30" as="geometry">
            <mxRectangle width="310" height="30" as="alternateBounds" />
          </mxGeometry>
        </mxCell>
        <mxCell id="NovdqPIXgLQZZNAuiQYG-143" value="" style="shape=tableRow;horizontal=0;startSize=0;swimlaneHead=0;swimlaneBody=0;fillColor=none;collapsible=0;dropTarget=0;points=[[0,0.5],[1,0.5]];portConstraint=eastwest;top=0;left=0;right=0;bottom=0;strokeColor=#909090;fontColor=#1A1A1A;" vertex="1" parent="NovdqPIXgLQZZNAuiQYG-124">
          <mxGeometry y="210" width="340" height="30" as="geometry" />
        </mxCell>
        <mxCell id="NovdqPIXgLQZZNAuiQYG-144" value="" style="shape=partialRectangle;connectable=0;fillColor=none;top=0;left=0;bottom=0;right=0;editable=1;overflow=hidden;strokeColor=#909090;fontColor=#1A1A1A;" vertex="1" parent="NovdqPIXgLQZZNAuiQYG-143">
          <mxGeometry width="30" height="30" as="geometry">
            <mxRectangle width="30" height="30" as="alternateBounds" />
          </mxGeometry>
        </mxCell>
        <mxCell id="NovdqPIXgLQZZNAuiQYG-145" value="cuser" style="shape=partialRectangle;connectable=0;fillColor=none;top=0;left=0;bottom=0;right=0;align=left;spacingLeft=6;overflow=hidden;strokeColor=#909090;fontColor=#1A1A1A;" vertex="1" parent="NovdqPIXgLQZZNAuiQYG-143">
          <mxGeometry x="30" width="310" height="30" as="geometry">
            <mxRectangle width="310" height="30" as="alternateBounds" />
          </mxGeometry>
        </mxCell>
        <mxCell id="NovdqPIXgLQZZNAuiQYG-146" value="" style="shape=tableRow;horizontal=0;startSize=0;swimlaneHead=0;swimlaneBody=0;fillColor=none;collapsible=0;dropTarget=0;points=[[0,0.5],[1,0.5]];portConstraint=eastwest;top=0;left=0;right=0;bottom=0;strokeColor=#909090;fontColor=#1A1A1A;" vertex="1" parent="NovdqPIXgLQZZNAuiQYG-124">
          <mxGeometry y="240" width="340" height="30" as="geometry" />
        </mxCell>
        <mxCell id="NovdqPIXgLQZZNAuiQYG-147" value="" style="shape=partialRectangle;connectable=0;fillColor=none;top=0;left=0;bottom=0;right=0;editable=1;overflow=hidden;strokeColor=#909090;fontColor=#1A1A1A;" vertex="1" parent="NovdqPIXgLQZZNAuiQYG-146">
          <mxGeometry width="30" height="30" as="geometry">
            <mxRectangle width="30" height="30" as="alternateBounds" />
          </mxGeometry>
        </mxCell>
        <mxCell id="NovdqPIXgLQZZNAuiQYG-148" value="cdate" style="shape=partialRectangle;connectable=0;fillColor=none;top=0;left=0;bottom=0;right=0;align=left;spacingLeft=6;overflow=hidden;strokeColor=#909090;fontColor=#1A1A1A;" vertex="1" parent="NovdqPIXgLQZZNAuiQYG-146">
          <mxGeometry x="30" width="310" height="30" as="geometry">
            <mxRectangle width="310" height="30" as="alternateBounds" />
          </mxGeometry>
        </mxCell>
        <mxCell id="NovdqPIXgLQZZNAuiQYG-149" value="" style="shape=tableRow;horizontal=0;startSize=0;swimlaneHead=0;swimlaneBody=0;fillColor=none;collapsible=0;dropTarget=0;points=[[0,0.5],[1,0.5]];portConstraint=eastwest;top=0;left=0;right=0;bottom=0;strokeColor=#909090;fontColor=#1A1A1A;" vertex="1" parent="NovdqPIXgLQZZNAuiQYG-124">
          <mxGeometry y="270" width="340" height="30" as="geometry" />
        </mxCell>
        <mxCell id="NovdqPIXgLQZZNAuiQYG-150" value="" style="shape=partialRectangle;connectable=0;fillColor=none;top=0;left=0;bottom=0;right=0;editable=1;overflow=hidden;strokeColor=#909090;fontColor=#1A1A1A;" vertex="1" parent="NovdqPIXgLQZZNAuiQYG-149">
          <mxGeometry width="30" height="30" as="geometry">
            <mxRectangle width="30" height="30" as="alternateBounds" />
          </mxGeometry>
        </mxCell>
        <mxCell id="NovdqPIXgLQZZNAuiQYG-151" value="uuser" style="shape=partialRectangle;connectable=0;fillColor=none;top=0;left=0;bottom=0;right=0;align=left;spacingLeft=6;overflow=hidden;strokeColor=#909090;fontColor=#1A1A1A;" vertex="1" parent="NovdqPIXgLQZZNAuiQYG-149">
          <mxGeometry x="30" width="310" height="30" as="geometry">
            <mxRectangle width="310" height="30" as="alternateBounds" />
          </mxGeometry>
        </mxCell>
        <mxCell id="NovdqPIXgLQZZNAuiQYG-152" value="" style="shape=tableRow;horizontal=0;startSize=0;swimlaneHead=0;swimlaneBody=0;fillColor=none;collapsible=0;dropTarget=0;points=[[0,0.5],[1,0.5]];portConstraint=eastwest;top=0;left=0;right=0;bottom=0;strokeColor=#909090;fontColor=#1A1A1A;" vertex="1" parent="NovdqPIXgLQZZNAuiQYG-124">
          <mxGeometry y="300" width="340" height="30" as="geometry" />
        </mxCell>
        <mxCell id="NovdqPIXgLQZZNAuiQYG-153" value="" style="shape=partialRectangle;connectable=0;fillColor=none;top=0;left=0;bottom=0;right=0;editable=1;overflow=hidden;strokeColor=#909090;fontColor=#1A1A1A;" vertex="1" parent="NovdqPIXgLQZZNAuiQYG-152">
          <mxGeometry width="30" height="30" as="geometry">
            <mxRectangle width="30" height="30" as="alternateBounds" />
          </mxGeometry>
        </mxCell>
        <mxCell id="NovdqPIXgLQZZNAuiQYG-154" value="udate" style="shape=partialRectangle;connectable=0;fillColor=none;top=0;left=0;bottom=0;right=0;align=left;spacingLeft=6;overflow=hidden;strokeColor=#909090;fontColor=#1A1A1A;" vertex="1" parent="NovdqPIXgLQZZNAuiQYG-152">
          <mxGeometry x="30" width="310" height="30" as="geometry">
            <mxRectangle width="310" height="30" as="alternateBounds" />
          </mxGeometry>
        </mxCell>
        <mxCell id="NovdqPIXgLQZZNAuiQYG-163" value="" style="edgeStyle=entityRelationEdgeStyle;fontSize=12;html=1;endArrow=ERmandOne;startArrow=ERmandOne;rounded=0;exitX=1;exitY=0.5;exitDx=0;exitDy=0;entryX=0;entryY=0.5;entryDx=0;entryDy=0;" edge="1" parent="WIyWlLk6GJQsqaUBKTNV-1" source="NovdqPIXgLQZZNAuiQYG-63" target="NovdqPIXgLQZZNAuiQYG-35">
          <mxGeometry width="100" height="100" relative="1" as="geometry">
            <mxPoint x="-1780" y="-540" as="sourcePoint" />
            <mxPoint x="-1680" y="-640" as="targetPoint" />
          </mxGeometry>
        </mxCell>
        <mxCell id="NovdqPIXgLQZZNAuiQYG-164" value="" style="edgeStyle=orthogonalEdgeStyle;fontSize=12;html=1;endArrow=ERmandOne;startArrow=ERmandOne;rounded=0;exitX=0;exitY=0.5;exitDx=0;exitDy=0;entryX=0;entryY=0.5;entryDx=0;entryDy=0;" edge="1" parent="WIyWlLk6GJQsqaUBKTNV-1" source="NovdqPIXgLQZZNAuiQYG-32" target="NovdqPIXgLQZZNAuiQYG-7">
          <mxGeometry width="100" height="100" relative="1" as="geometry">
            <mxPoint x="-2020" y="-520" as="sourcePoint" />
            <mxPoint x="-1690" y="-640" as="targetPoint" />
            <Array as="points">
              <mxPoint x="-2060" y="-515" />
              <mxPoint x="-2060" y="-925" />
            </Array>
          </mxGeometry>
        </mxCell>
        <mxCell id="NovdqPIXgLQZZNAuiQYG-165" value="" style="edgeStyle=entityRelationEdgeStyle;fontSize=12;html=1;endArrow=ERmandOne;startArrow=ERmandOne;rounded=0;exitX=1;exitY=0.5;exitDx=0;exitDy=0;entryX=0;entryY=0.5;entryDx=0;entryDy=0;" edge="1" parent="WIyWlLk6GJQsqaUBKTNV-1" source="NovdqPIXgLQZZNAuiQYG-32" target="NovdqPIXgLQZZNAuiQYG-128">
          <mxGeometry width="100" height="100" relative="1" as="geometry">
            <mxPoint x="-1790" y="-540" as="sourcePoint" />
            <mxPoint x="-1690" y="-640" as="targetPoint" />
          </mxGeometry>
        </mxCell>
        <mxCell id="NovdqPIXgLQZZNAuiQYG-166" value="" style="edgeStyle=entityRelationEdgeStyle;fontSize=12;html=1;endArrow=ERmandOne;startArrow=ERmandOne;rounded=0;exitX=1;exitY=0.5;exitDx=0;exitDy=0;" edge="1" parent="WIyWlLk6GJQsqaUBKTNV-1" source="NovdqPIXgLQZZNAuiQYG-131" target="NovdqPIXgLQZZNAuiQYG-94">
          <mxGeometry width="100" height="100" relative="1" as="geometry">
            <mxPoint x="-1430" y="-500" as="sourcePoint" />
            <mxPoint x="-1330" y="-600" as="targetPoint" />
          </mxGeometry>
        </mxCell>
      </root>
    </mxGraphModel>
  </diagram>
</mxfile>
